# xmcd CD database file
#
# Track frame offsets:
#	150
#	5297
#	37132
#	76253
#	112599
#	136765
#	178338
#	204116
#	239845
#	249830
#	296509
#
# Disc length: 4409 seconds
#
# Revision: 0
# Processed by: cddbd v1.5.2PL0 Copyright (c) Steve Scherf et al.
# Submitted via: CDex 1.51
#
DISCID=8911370b
DTITLE=Abraham-Hicks - 09-22-07 - Detroit, MI
DYEAR=2007
DGENRE=New Age
TTITLE0=Abraham-Hicks Publications
TTITLE1=Before your birth, you thought
TTITLE2=Are we weller when we're sick?
TTITLE3=Previous generation's desires?
TTITLE4=The call of Source sounds like?
TTITLE5=Time to tell a different story?
TTITLE6=Go from believing to knowing?
TTITLE7=Is it his visions vs her doubt?
TTITLE8=Prayers attract or create it?
TTITLE9=Ask Abraham "Where's my stuff"?
TTITLE10=Detroit, MI Workshop closing
EXTD=YEAR: 2007
EXTT0=
EXTT1=
EXTT2=
EXTT3=
EXTT4=
EXTT5=
EXTT6=
EXTT7=
EXTT8=
EXTT9=
EXTT10=
PLAYORDER=
